<svg width="148" height="20" viewBox="0 0 148 20" fill="none" xmlns="http://www.w3.org/2000/svg">
<path d="M36.2325 4.93439H32.7744V19.814H36.2325V4.93439Z" fill="black"/>
<path d="M41.1725 4.94989C41.2805 4.96539 41.3732 4.98089 41.4503 5.02738C41.5275 5.05838 41.6047 5.12038 41.6819 5.18238C41.7591 5.24438 41.8363 5.33738 41.9289 5.46137L48.9686 14.4047C48.9377 14.1102 48.9223 13.8467 48.9068 13.5677C48.8914 13.3042 48.8914 13.0407 48.8914 12.8082V4.93439H51.9172V19.814H50.1264C49.864 19.814 49.6324 19.7675 49.4472 19.69C49.2619 19.6125 49.0921 19.4575 48.9223 19.2405L41.9289 10.3748C41.9443 10.6382 41.9598 10.8862 41.9752 11.1342C41.9907 11.3822 41.9907 11.6147 41.9907 11.8317V19.814H38.9648V4.93439H40.7711C40.9409 4.93439 41.0644 4.93439 41.1725 4.94989Z" fill="black"/>
<path d="M63.9127 4.93439V7.58482H57.8302V11.3512H62.8938V14.0172H57.8302V19.814H54.3721V4.93439H63.9127Z" fill="black"/>
<path d="M69.1458 14.3117V19.814H65.7031V4.93439H70.5197C71.5849 4.93439 72.5112 5.04288 73.2677 5.25988C74.0241 5.47687 74.6416 5.78687 75.1202 6.18986C75.5988 6.59285 75.9539 7.05783 76.17 7.58482C76.3861 8.12731 76.4942 8.71629 76.4942 9.33628C76.4942 9.81677 76.4324 10.2818 76.3089 10.7002C76.1854 11.1342 75.9847 11.5217 75.7377 11.8937C75.4907 12.2657 75.1665 12.5757 74.796 12.8702C74.4255 13.1492 73.9933 13.3972 73.5147 13.5677C73.7462 13.6762 73.9624 13.8312 74.1631 14.0017C74.3638 14.1722 74.5336 14.3737 74.688 14.6216L77.8373 19.7985H74.7188C74.1476 19.7985 73.7308 19.5815 73.4838 19.1475L71.0292 14.8231C70.9211 14.6371 70.7976 14.4976 70.6432 14.4201C70.5043 14.3427 70.2882 14.2962 70.0257 14.2962H69.1458V14.3117ZM69.1458 11.9247H70.5352C70.9983 11.9247 71.3997 11.8627 71.7239 11.7387C72.0481 11.6147 72.326 11.4597 72.5267 11.2427C72.7428 11.0257 72.8972 10.7777 72.9898 10.4987C73.0824 10.2198 73.1287 9.90976 73.1287 9.58427C73.1287 8.93329 72.9126 8.4218 72.4958 8.04981C72.079 7.67782 71.4151 7.49182 70.5197 7.49182H69.1303V11.9247H69.1458Z" fill="black"/>
<path d="M93.0435 19.8141H90.3728C90.0794 19.8141 89.8324 19.7521 89.6317 19.6126C89.4465 19.4731 89.3075 19.2871 89.2303 19.0701L88.3504 16.4662H82.7156L81.8356 19.0546C81.7739 19.2406 81.6349 19.4111 81.4342 19.5661C81.2335 19.7211 81.002 19.7986 80.7087 19.7986H78.0225L83.7653 4.91895H87.2852L93.0435 19.8141ZM83.5183 14.1257H87.5631L86.2045 10.0493C86.1119 9.78582 86.0193 9.49133 85.8958 9.13484C85.7723 8.77835 85.6642 8.40636 85.5407 8.00337C85.4326 8.42186 85.3246 8.80935 85.2011 9.15034C85.093 9.50683 84.9695 9.81682 84.8769 10.0648L83.5183 14.1257Z" fill="black"/>
<path d="M97.6751 14.8386V19.814H94.2324V4.93439H99.4658C100.516 4.93439 101.411 5.05838 102.152 5.30638C102.908 5.55437 103.526 5.89536 104.005 6.32935C104.483 6.76334 104.854 7.27483 105.085 7.87931C105.317 8.4683 105.425 9.11928 105.425 9.80127C105.425 10.5452 105.301 11.2272 105.07 11.8472C104.838 12.4672 104.468 12.9942 103.974 13.4437C103.48 13.8932 102.862 14.2342 102.121 14.4821C101.365 14.7301 100.485 14.8541 99.4658 14.8541H97.6751V14.8386ZM97.6751 12.2347H99.4658C100.361 12.2347 101.01 12.0177 101.396 11.5992C101.782 11.1652 101.982 10.5762 101.982 9.80127C101.982 9.46027 101.936 9.15028 101.828 8.87129C101.72 8.59229 101.565 8.3443 101.365 8.15831C101.164 7.95681 100.902 7.80182 100.577 7.69332C100.269 7.58482 99.8827 7.52282 99.4504 7.52282H97.6596V12.2347H97.6751Z" fill="black"/>
<path d="M121.851 12.3743C121.851 13.4437 121.665 14.4512 121.295 15.3812C120.924 16.3112 120.399 17.1171 119.736 17.7991C119.056 18.4811 118.254 19.0236 117.312 19.4111C116.37 19.7986 115.32 20.0001 114.162 20.0001C113.005 20.0001 111.955 19.7986 111.013 19.4111C110.056 19.0236 109.253 18.4811 108.574 17.7991C107.895 17.1171 107.37 16.3112 107.015 15.3812C106.644 14.4512 106.459 13.4592 106.459 12.3743C106.459 11.3048 106.644 10.2973 107.015 9.36733C107.385 8.43735 107.91 7.63137 108.574 6.94939C109.253 6.26741 110.056 5.74042 111.013 5.33743C111.955 4.94994 113.02 4.74844 114.162 4.74844C115.305 4.74844 116.37 4.94994 117.312 5.33743C118.254 5.72492 119.072 6.26741 119.736 6.94939C120.399 7.63137 120.924 8.43735 121.295 9.35183C121.665 10.2973 121.851 11.3048 121.851 12.3743ZM118.331 12.3743C118.331 11.6303 118.238 10.9793 118.053 10.3903C117.868 9.80132 117.59 9.30533 117.235 8.88684C116.88 8.48385 116.447 8.17386 115.922 7.94137C115.413 7.72437 114.826 7.61587 114.162 7.61587C113.499 7.61587 112.912 7.72437 112.387 7.94137C111.862 8.15836 111.43 8.46835 111.075 8.88684C110.72 9.28983 110.442 9.80132 110.257 10.3903C110.071 10.9793 109.979 11.6458 109.979 12.3743C109.979 13.1182 110.071 13.7847 110.257 14.3737C110.442 14.9627 110.72 15.4587 111.075 15.8772C111.43 16.2802 111.862 16.5902 112.387 16.8071C112.912 17.0241 113.499 17.1326 114.162 17.1326C114.826 17.1326 115.413 17.0241 115.922 16.8071C116.432 16.5902 116.88 16.2802 117.235 15.8772C117.59 15.4742 117.868 14.9627 118.053 14.3737C118.238 13.7692 118.331 13.1027 118.331 12.3743Z" fill="black"/>
<path d="M126.946 14.3117V19.814H123.503V4.93439H128.32C129.385 4.93439 130.311 5.04288 131.067 5.25988C131.824 5.47687 132.441 5.78687 132.92 6.18986C133.399 6.59285 133.738 7.05783 133.97 7.58482C134.186 8.12731 134.294 8.71629 134.294 9.33628C134.294 9.81677 134.232 10.2818 134.109 10.7002C133.985 11.1342 133.785 11.5217 133.538 11.8937C133.291 12.2657 132.966 12.5757 132.596 12.8702C132.225 13.1492 131.793 13.3972 131.314 13.5677C131.546 13.6762 131.762 13.8312 131.963 14.0017C132.164 14.1722 132.333 14.3737 132.488 14.6216L135.637 19.7985H132.519C131.947 19.7985 131.531 19.5815 131.284 19.1475L128.814 14.8231C128.705 14.6371 128.582 14.4976 128.428 14.4201C128.289 14.3427 128.073 14.2962 127.81 14.2962H126.946V14.3117ZM126.946 11.9247H128.335C128.798 11.9247 129.199 11.8627 129.524 11.7387C129.848 11.6147 130.126 11.4597 130.326 11.2427C130.543 11.0257 130.697 10.7777 130.79 10.4987C130.882 10.2198 130.929 9.90976 130.929 9.58427C130.929 8.93329 130.712 8.4218 130.296 8.04981C129.879 7.67782 129.215 7.49182 128.32 7.49182H126.93V11.9247H126.946Z" fill="black"/>
<path d="M147.2 4.93439V7.66232H143.016V19.814H139.573V7.66232H135.405V4.93439H147.2Z" fill="black"/>
<path d="M11.6865 4.53139L15.8238 7.70881L6.57653 19.814H0L11.6865 4.53139Z" fill="#0B0C0C"/>
<path d="M15.1448 1.63634e-06L12.5029 3.4547L16.6418 6.64517L19.2837 3.19047L15.1448 1.63634e-06Z" fill="#0B0C0C"/>
<path d="M16.9202 8.56129L21.0575 11.7387L14.8824 19.814H8.32129L16.9202 8.56129Z" fill="#0B0C0C"/>
<path d="M20.3739 4.0275L17.7324 7.48219L21.8591 10.6627L24.5005 7.20801L20.3739 4.0275Z" fill="#0B0C0C"/>
<path d="M22.1537 12.5912L26.2911 15.7686L23.188 19.814H16.627L22.1537 12.5912Z" fill="#0B0C0C"/>
<path d="M25.6077 8.05051L22.9658 11.5052L27.1047 14.6957L29.7466 11.241L25.6077 8.05051Z" fill="#0B0C0C"/>
</svg>
