<?xml version="1.0" standalone="no"?>
<!DOCTYPE svg PUBLIC "-//W3C//DTD SVG 20010904//EN"
 "http://www.w3.org/TR/2001/REC-SVG-20010904/DTD/svg10.dtd">
<svg version="1.0" xmlns="http://www.w3.org/2000/svg"
 width="900.000000pt" height="900.000000pt" viewBox="0 0 900.000000 900.000000"
 preserveAspectRatio="xMidYMid meet">
<metadata>
Created by potrace 1.10, written by Peter Selinger 2001-2011
</metadata>
<g transform="translate(0.000000,900.000000) scale(0.100000,-0.100000)"
fill="#000000" stroke="none">
<path d="M1578 7683 c-2 -725 -2 -1323 0 -1329 4 -16 421 -6 495 12 32 8 68
14 80 14 12 0 35 7 51 15 15 8 37 15 47 15 20 0 56 15 164 67 125 62 226 129
319 214 61 56 163 173 191 218 6 9 22 34 35 56 39 62 48 77 71 125 12 25 28
57 35 72 8 14 14 35 14 45 0 11 7 28 15 39 8 10 15 31 15 45 0 14 7 45 15 70
l15 44 278 -2 c152 -1 279 -2 282 -2 3 -1 4 -166 2 -368 -2 -358 -5 -394 -37
-483 -28 -80 -37 -106 -45 -135 -14 -51 -61 -188 -76 -223 -8 -18 -14 -39 -14
-46 0 -8 -7 -27 -15 -42 -8 -16 -15 -38 -15 -49 0 -11 -7 -29 -15 -39 -8 -11
-15 -31 -15 -44 0 -13 -5 -33 -12 -45 -6 -12 -15 -35 -19 -52 -4 -16 -13 -46
-20 -65 -6 -19 -17 -51 -24 -70 -7 -19 -18 -51 -24 -70 -7 -19 -16 -48 -21
-65 -10 -37 -29 -89 -47 -132 -7 -17 -13 -40 -13 -50 0 -10 -4 -23 -9 -28 -6
-6 -14 -28 -20 -50 -10 -43 -26 -91 -48 -142 -7 -17 -13 -40 -13 -50 0 -10 -4
-23 -9 -28 -6 -6 -14 -28 -20 -50 -10 -44 -27 -93 -47 -143 -8 -18 -14 -41
-14 -50 0 -10 -4 -22 -9 -27 -4 -6 -18 -44 -31 -85 -12 -41 -28 -90 -36 -108
-8 -18 -14 -39 -14 -46 0 -8 -7 -27 -15 -42 -8 -16 -15 -38 -15 -49 0 -11 -7
-29 -15 -39 -8 -11 -15 -31 -15 -44 0 -13 -5 -33 -12 -45 -6 -12 -15 -35 -19
-52 -8 -34 -26 -86 -46 -132 -7 -17 -13 -39 -13 -48 0 -9 -5 -26 -12 -38 -6
-12 -15 -35 -19 -52 -8 -34 -26 -86 -46 -132 -7 -17 -13 -40 -13 -50 0 -10 -4
-23 -9 -28 -6 -6 -14 -28 -20 -50 -10 -43 -26 -91 -48 -142 -7 -17 -13 -40
-13 -50 0 -10 -4 -23 -9 -28 -6 -6 -14 -28 -20 -50 -10 -44 -27 -93 -47 -143
-8 -18 -14 -41 -14 -50 0 -10 -4 -22 -8 -27 -5 -6 -19 -44 -31 -85 -13 -41
-29 -90 -37 -108 -8 -18 -14 -39 -14 -46 0 -8 -7 -27 -15 -42 -8 -16 -15 -38
-15 -49 0 -11 -7 -29 -15 -39 -8 -11 -15 -30 -15 -43 0 -12 -6 -37 -14 -55
-17 -41 -35 -93 -46 -133 -14 -51 -61 -188 -76 -223 -8 -18 -14 -39 -14 -46 0
-8 -7 -27 -15 -42 -8 -16 -15 -38 -15 -50 0 -11 -4 -24 -9 -30 -6 -5 -14 -27
-20 -49 -10 -43 -26 -91 -48 -142 -7 -17 -13 -40 -13 -50 0 -10 -4 -23 -9 -29
-6 -5 -14 -27 -20 -49 -10 -44 -27 -93 -47 -143 -8 -18 -14 -41 -14 -50 0 -10
-4 -22 -9 -28 -4 -5 -18 -43 -31 -84 -12 -41 -28 -90 -36 -108 -8 -18 -14 -39
-14 -46 0 -8 -7 -27 -15 -42 -8 -16 -15 -38 -15 -49 0 -11 -7 -29 -15 -39 -8
-11 -15 -30 -15 -43 0 -12 -6 -37 -14 -55 -17 -41 -35 -93 -46 -133 -14 -51
-61 -188 -76 -223 -8 -18 -14 -39 -14 -46 0 -8 -7 -27 -15 -42 -8 -16 -15 -38
-15 -49 0 -11 -7 -29 -15 -39 -8 -11 -15 -30 -15 -43 0 -12 -6 -37 -14 -55
-22 -52 -46 -131 -46 -150 0 -9 -4 -20 -10 -23 -5 -3 -381 -6 -835 -5 l-825 1
0 -66 0 -66 814 3 814 3 44 31 c106 76 23 -155 1108 3099 544 1634 999 3004
1010 3045 18 68 20 108 20 427 0 210 -4 362 -10 378 -15 39 -69 103 -108 127
-29 18 -55 22 -176 26 -78 2 -191 1 -250 -3 -97 -6 -111 -10 -154 -38 -56 -38
-98 -104 -132 -208 -25 -77 -102 -227 -161 -314 -38 -57 -195 -216 -254 -258
-123 -88 -210 -132 -357 -181 -112 -37 -177 -48 -328 -53 -130 -4 -136 -3
-155 17 -21 23 -21 70 -25 2483 0 26 -1 27 -60 27 l-60 0 -2 -1317z"/>
<path d="M4221 8728 l4 -273 -75 1 c-41 0 -158 1 -259 3 -101 1 -187 -1 -191
-6 -4 -4 -4 -120 0 -258 4 -137 3 -254 0 -258 -8 -9 -549 -11 -558 -2 -10 10
-32 79 -32 102 0 12 -7 39 -16 60 -9 21 -22 52 -29 68 -63 155 -148 286 -265
408 -75 80 -208 191 -250 210 -8 4 -31 17 -50 28 -124 74 -233 114 -375 139
-51 9 -235 2 -235 -9 1 -12 159 -82 260 -115 199 -65 325 -128 440 -222 91
-74 190 -178 239 -251 43 -64 161 -301 161 -324 1 -59 115 -199 177 -216 37
-10 437 -10 485 0 47 10 133 94 149 146 6 20 14 104 18 187 4 105 10 156 20
168 11 13 35 16 141 16 183 0 224 10 283 68 79 76 81 83 85 360 l4 242 -67 0
-67 0 3 -272z"/>
<path d="M4632 8758 c4 -277 6 -284 85 -360 59 -58 100 -68 283 -68 106 0 130
-3 141 -16 10 -12 15 -62 19 -178 5 -153 6 -163 32 -207 36 -61 89 -106 135
-116 49 -10 449 -10 486 0 45 12 127 95 153 156 13 29 24 57 24 62 0 26 104
236 153 309 71 106 104 142 213 235 133 114 325 213 514 265 50 14 220 92 220
101 0 11 -173 17 -230 8 -133 -19 -256 -64 -380 -138 -19 -11 -42 -24 -50 -28
-74 -34 -301 -247 -365 -343 -16 -25 -32 -47 -35 -50 -14 -13 -87 -156 -115
-225 -7 -16 -20 -47 -29 -68 -9 -21 -16 -48 -16 -60 0 -23 -22 -92 -32 -102
-9 -9 -550 -7 -558 2 -3 4 -4 121 0 258 4 138 4 254 0 258 -4 5 -93 7 -196 6
-104 -2 -220 -3 -259 -3 l-70 -1 4 273 3 272 -67 0 -67 0 4 -242z"/>
<path d="M7278 7754 l-3 -1246 -24 -19 c-20 -16 -40 -19 -137 -19 -63 0 -133
4 -156 10 -24 5 -72 16 -108 24 -91 20 -189 58 -293 114 -117 63 -163 99 -275
210 -115 115 -195 236 -257 390 -26 65 -54 134 -63 154 -18 46 -109 134 -148
145 -16 4 -133 8 -261 8 l-231 0 -43 -30 c-24 -17 -57 -50 -74 -74 l-30 -43
-3 -361 c-3 -337 -1 -367 18 -442 11 -45 146 -459 301 -920 154 -462 291 -874
304 -915 13 -41 29 -88 35 -105 18 -49 160 -475 180 -540 10 -33 24 -73 30
-90 14 -37 288 -858 301 -902 5 -18 91 -274 190 -570 99 -296 189 -565 199
-598 10 -33 73 -222 140 -420 66 -198 134 -400 150 -450 93 -292 173 -514 199
-550 15 -22 50 -56 76 -76 39 -30 57 -37 113 -43 37 -3 410 -6 830 -6 l762 0
0 65 0 66 -835 -1 c-459 -1 -840 2 -845 5 -6 3 -10 14 -10 23 0 19 -24 98 -46
150 -8 18 -14 43 -14 55 0 13 -7 32 -15 43 -8 10 -15 28 -15 39 0 11 -7 33
-15 49 -8 15 -15 34 -15 42 0 7 -6 28 -14 46 -15 35 -62 172 -76 223 -11 40
-29 92 -46 133 -8 18 -14 40 -14 50 0 9 -7 30 -15 46 -8 15 -15 35 -15 43 0 8
-6 29 -13 46 -22 51 -38 99 -48 142 -6 22 -14 44 -20 49 -5 6 -9 19 -9 29 0
10 -6 33 -13 50 -18 43 -37 95 -47 132 -5 17 -14 46 -21 65 -6 19 -17 51 -24
70 -7 19 -18 51 -24 70 -7 19 -16 49 -20 65 -4 17 -13 40 -19 52 -7 12 -12 32
-12 45 0 13 -7 33 -15 44 -8 10 -15 27 -15 37 0 11 -6 33 -13 50 -18 43 -37
95 -47 132 -5 17 -14 46 -21 65 -6 19 -17 51 -24 70 -7 19 -18 51 -24 70 -7
19 -16 49 -20 65 -4 17 -13 40 -19 52 -7 12 -12 32 -12 45 0 13 -7 33 -15 44
-8 10 -15 28 -15 39 0 11 -7 33 -15 49 -8 15 -15 34 -15 42 0 7 -6 28 -14 46
-8 18 -24 67 -36 108 -13 41 -27 79 -31 85 -5 5 -9 17 -9 27 0 9 -6 32 -14 50
-20 49 -37 98 -47 141 -5 21 -13 45 -18 55 -11 23 -31 80 -40 117 -4 17 -13
40 -19 52 -7 12 -12 32 -12 45 0 13 -7 33 -15 44 -8 10 -15 27 -15 37 0 11 -6
33 -13 50 -18 43 -37 95 -47 132 -5 17 -14 46 -21 65 -6 19 -17 51 -24 70 -7
19 -18 51 -24 70 -7 19 -16 49 -20 65 -4 17 -13 40 -19 52 -7 12 -12 32 -12
45 0 13 -7 33 -15 44 -8 10 -15 27 -15 37 0 11 -6 33 -13 50 -21 50 -38 99
-48 140 -5 21 -13 45 -18 55 -10 21 -30 77 -41 117 -11 39 -29 91 -46 133 -8
18 -14 40 -14 50 0 9 -7 30 -15 46 -8 15 -15 35 -15 43 0 8 -6 29 -13 46 -22
51 -38 99 -48 142 -6 22 -14 44 -20 50 -5 5 -9 18 -9 28 0 10 -6 33 -13 50
-18 43 -37 95 -47 132 -5 17 -14 46 -21 65 -6 19 -17 51 -24 70 -7 19 -18 51
-24 70 -7 19 -16 49 -20 65 -4 17 -13 40 -19 52 -7 12 -12 32 -12 45 0 13 -7
33 -15 44 -8 10 -15 27 -15 37 0 11 -6 33 -13 50 -18 43 -37 95 -47 132 -9 33
-27 85 -43 125 -5 14 -13 39 -17 55 -8 28 -16 52 -45 135 -32 89 -35 125 -37
483 -2 202 -1 367 2 368 3 0 130 1 282 2 l277 2 16 -47 c8 -26 15 -57 15 -70
0 -13 7 -32 15 -42 8 -11 15 -28 15 -39 0 -10 6 -31 14 -45 7 -15 23 -47 35
-72 23 -48 32 -63 71 -125 13 -22 29 -47 35 -56 28 -45 130 -162 191 -218 59
-53 156 -125 229 -168 45 -26 166 -83 178 -83 7 0 17 -4 22 -9 14 -11 135 -47
225 -65 93 -19 498 -28 502 -12 2 6 2 604 0 1329 l-2 1317 -60 0 -60 0 -2
-1246z"/>
<path d="M2115 8501 c-35 -16 -105 -96 -115 -131 -14 -47 -13 -1363 0 -1411
11 -40 97 -128 127 -130 96 -6 226 65 354 192 114 114 192 248 240 414 29 104
33 332 6 435 -41 158 -80 239 -173 357 -141 180 -353 312 -439 274z m35 -90
c0 -5 12 -14 28 -20 15 -6 41 -20 57 -31 17 -11 37 -23 45 -27 68 -32 226
-205 260 -284 5 -13 14 -31 19 -39 12 -21 36 -84 55 -151 22 -77 22 -310 0
-388 -43 -152 -127 -294 -226 -386 -46 -43 -180 -135 -196 -135 -5 0 -19 -9
-32 -20 -25 -22 -38 -24 -58 -12 -10 7 -10 23 -2 78 12 79 8 1337 -5 1392 -7
31 -6 32 24 32 17 0 31 -4 31 -9z"/>
<path d="M6790 8504 c-62 -21 -176 -90 -239 -145 -137 -118 -253 -298 -287
-446 -31 -137 -34 -155 -34 -241 0 -257 90 -472 274 -656 88 -88 168 -142 257
-173 62 -21 72 -22 102 -10 42 18 104 90 117 136 13 48 13 1353 0 1401 -14 50
-97 129 -141 135 -19 2 -41 2 -49 -1z m95 -116 c-13 -55 -17 -1313 -5 -1392 8
-55 8 -71 -2 -78 -20 -12 -33 -10 -58 12 -13 11 -27 20 -32 20 -16 0 -150 92
-196 135 -94 87 -185 238 -220 365 -24 85 -28 330 -7 405 44 157 100 259 199
363 56 60 178 148 239 173 15 6 27 15 27 20 0 5 14 9 31 9 30 0 31 -1 24 -32z"/>
<path d="M4315 8051 c-33 -3 -74 -14 -92 -24 -41 -22 -101 -100 -108 -141 -3
-17 -5 -243 -3 -501 l3 -471 25 -48 c17 -32 42 -61 74 -83 l48 -33 228 0 228
0 48 33 c33 23 58 51 76 87 l28 52 0 478 c0 304 -4 489 -10 506 -17 45 -70
103 -112 125 -33 17 -63 20 -206 24 -92 2 -194 0 -227 -4z m445 -648 l0 -538
-270 0 -270 0 0 538 0 537 270 0 270 0 0 -537z"/>
<path d="M4205 6461 c-58 -10 -98 -34 -144 -88 -35 -41 -50 -75 -106 -245 -76
-229 -84 -272 -61 -315 22 -43 100 -109 137 -117 42 -8 863 -8 914 1 49 8 139
92 149 140 12 55 -104 432 -158 510 -37 55 -99 101 -152 113 -45 11 -519 11
-579 1z m635 -130 c5 -11 10 -29 10 -40 0 -11 6 -35 14 -53 17 -42 35 -94 46
-133 16 -58 56 -166 82 -223 36 -79 75 -73 -502 -73 -577 0 -538 -6 -502 73
26 57 66 165 82 223 11 39 29 91 46 133 8 18 14 42 14 53 0 11 5 29 10 40 10
18 25 19 350 19 325 0 340 -1 350 -19z"/>
<path d="M3855 5405 c-5 -2 -22 -6 -36 -9 -35 -8 -125 -90 -148 -135 -18 -35
-119 -330 -221 -646 -31 -96 -54 -186 -57 -226 l-6 -67 43 -46 c36 -39 48 -46
79 -46 70 1 109 31 531 409 41 37 113 101 160 141 47 41 114 101 150 134 36
34 101 93 144 131 91 81 156 173 156 219 0 24 -11 42 -44 75 -66 65 -103 71
-451 70 -159 0 -294 -2 -300 -4z m730 -105 c11 -18 -6 -50 -34 -65 -15 -7 -45
-29 -66 -47 -67 -58 -407 -358 -490 -433 -44 -40 -125 -112 -180 -160 -167
-147 -240 -217 -297 -284 -62 -73 -79 -24 -29 83 31 63 56 129 71 181 4 17 14
46 21 65 6 19 17 51 24 70 7 19 18 51 24 70 7 19 16 49 21 65 5 17 14 46 21
65 6 19 17 51 24 70 7 19 18 51 24 70 7 19 16 49 21 65 5 17 13 44 19 60 6 17
13 41 15 55 13 63 -2 61 366 61 184 0 353 4 375 8 57 12 63 12 70 1z"/>
<path d="M5155 5211 c-58 -26 -122 -79 -426 -350 -52 -46 -168 -150 -258 -230
-90 -80 -198 -177 -240 -216 -42 -38 -103 -92 -136 -120 -307 -261 -510 -458
-544 -527 -27 -57 -23 -73 29 -127 72 -74 24 -71 1101 -71 1092 0 1012 -6
1084 87 35 46 37 51 32 108 -3 42 -64 241 -207 670 -111 336 -212 628 -222
650 -34 68 -119 145 -160 145 -7 0 -31 -9 -53 -19z m90 -83 c3 -13 10 -41 16
-63 6 -22 15 -53 20 -70 6 -16 14 -43 19 -60 5 -16 14 -46 21 -65 6 -19 17
-51 24 -70 7 -19 18 -51 24 -70 7 -19 16 -48 21 -65 5 -16 14 -46 21 -65 6
-19 17 -51 24 -70 7 -19 18 -51 24 -70 7 -19 16 -48 21 -65 5 -16 14 -46 21
-65 6 -19 17 -51 24 -70 7 -19 18 -51 24 -70 7 -19 16 -48 21 -65 5 -16 14
-46 21 -65 6 -19 17 -51 24 -70 7 -19 18 -51 24 -70 7 -19 16 -49 20 -65 4
-17 12 -39 18 -50 34 -66 45 -95 41 -105 -2 -8 -257 -11 -998 -11 -547 1
-1017 -2 -1045 -7 -104 -16 -111 7 -22 74 56 43 195 160 207 175 3 3 43 39 89
78 46 40 89 77 96 84 27 26 94 86 175 157 47 41 90 79 96 85 78 71 110 100
177 158 44 37 85 73 92 80 33 32 107 98 175 157 71 61 142 125 179 160 9 9 52
47 95 85 44 39 102 93 130 122 57 58 72 63 81 31z"/>
<path d="M3113 3279 c-39 -11 -126 -96 -152 -147 -29 -57 -374 -1096 -386
-1162 -8 -46 6 -80 56 -135 36 -39 47 -45 80 -45 43 0 154 48 299 130 85 47
268 147 410 223 41 22 89 48 105 57 17 10 57 33 90 51 167 91 385 209 510 276
77 41 161 88 188 104 26 16 49 29 52 29 6 0 297 160 310 170 6 4 54 31 108 59
55 28 124 69 155 90 83 57 152 135 152 173 0 27 -61 89 -110 112 -44 21 -56
21 -940 23 -542 1 -908 -2 -927 -8z m1927 -119 c0 -13 -9 -22 -26 -26 -37 -10
-332 -160 -459 -235 -16 -10 -52 -29 -80 -43 -27 -14 -79 -42 -115 -62 -63
-35 -112 -62 -255 -139 -38 -21 -83 -46 -100 -56 -16 -10 -57 -32 -90 -48 -33
-17 -82 -44 -110 -61 -27 -16 -54 -32 -60 -34 -5 -2 -17 -7 -25 -10 -8 -3 -28
-15 -45 -26 -16 -10 -52 -30 -80 -45 -27 -14 -57 -29 -65 -34 -8 -5 -22 -12
-30 -15 -8 -4 -42 -22 -75 -41 -33 -20 -82 -47 -110 -61 -27 -14 -63 -34 -80
-44 -16 -10 -59 -34 -95 -53 -84 -44 -197 -105 -235 -128 -16 -10 -52 -30 -80
-45 -27 -14 -71 -42 -98 -61 -71 -52 -97 -32 -58 45 31 60 61 137 81 207 4 17
14 46 21 65 6 19 17 51 24 70 7 19 18 51 24 70 7 19 16 49 21 65 5 17 14 46
21 65 6 19 17 51 24 70 7 19 18 51 24 70 7 19 16 49 21 65 5 17 14 46 21 65 6
19 17 51 24 70 7 19 18 51 24 70 7 19 16 49 21 65 8 28 13 44 47 138 7 20 13
46 13 57 0 20 12 20 923 23 507 1 948 3 980 5 51 2 57 0 57 -18z"/>
<path d="M5850 3131 c-39 -13 -146 -68 -492 -257 -296 -162 -661 -361 -848
-462 -70 -37 -280 -154 -325 -180 -11 -6 -101 -55 -200 -108 -291 -156 -596
-325 -650 -360 -52 -33 -124 -104 -145 -143 -24 -45 19 -103 105 -143 l50 -23
1511 0 1510 0 42 28 c23 15 56 46 73 70 28 37 30 48 26 93 -3 28 -101 339
-217 690 -227 684 -240 714 -324 776 -39 28 -69 33 -116 19z m92 -108 c6 -16
14 -44 18 -63 5 -19 14 -51 20 -70 7 -19 18 -51 25 -70 7 -19 18 -51 24 -70 7
-19 16 -48 21 -65 5 -16 14 -46 21 -65 6 -19 17 -51 24 -70 7 -19 18 -51 24
-70 7 -19 16 -48 21 -65 5 -16 14 -46 21 -65 6 -19 17 -51 24 -70 7 -19 18
-51 24 -70 7 -19 16 -48 21 -65 5 -16 14 -46 21 -65 6 -19 17 -51 24 -70 7
-19 18 -51 24 -70 7 -19 16 -48 21 -65 15 -54 55 -164 81 -223 10 -23 19 -50
19 -60 0 -16 -89 -17 -1543 -17 -1286 0 -1550 -2 -1590 -14 -26 -8 -50 -11
-54 -7 -10 10 15 56 34 62 40 13 180 79 223 104 8 5 22 11 30 14 8 4 29 15 45
26 17 10 53 30 80 44 28 14 91 48 140 76 50 28 113 62 140 76 28 14 64 34 80
44 17 11 35 22 40 24 6 2 17 7 25 10 8 4 42 22 75 41 33 20 83 47 110 61 28
14 64 33 80 43 17 10 64 36 105 58 41 22 91 50 110 61 19 12 62 35 95 51 33
17 83 44 110 61 28 16 56 32 62 35 7 3 19 7 25 10 7 3 27 14 43 25 17 10 53
30 80 44 28 14 91 48 140 76 50 28 113 62 140 76 28 14 64 34 80 44 17 10 53
30 80 44 28 15 91 48 140 75 50 28 108 60 130 71 106 58 149 83 188 110 53 37
65 37 79 3z"/>
<path d="M2402 1160 c-36 -15 -99 -69 -127 -111 -38 -54 -145 -379 -152 -460
-6 -66 -5 -66 32 -108 21 -23 57 -52 79 -64 l41 -22 2195 -3 c1903 -2 2201 0
2245 12 60 18 118 73 138 131 16 46 9 79 -73 328 -58 177 -98 241 -179 284
l-44 23 -2066 -1 c-1228 0 -2075 -4 -2089 -9z m4202 -132 c9 -12 16 -33 16
-45 0 -12 6 -37 14 -55 17 -42 35 -94 46 -133 8 -29 17 -57 47 -140 8 -22 23
-57 34 -78 26 -49 13 -81 -29 -70 -35 10 -4449 10 -4484 0 -42 -11 -55 21 -29
70 11 21 26 56 34 78 30 83 39 111 47 140 11 39 29 91 46 133 8 18 14 43 14
55 0 12 7 33 16 45 l15 22 2099 0 2099 0 15 -22z"/>
</g>
</svg>
